<svg xmlns="http://www.w3.org/2000/svg" xml:space="preserve" width="1500" height="1500" data-id="lg_JMhWfnhKL4BDpWZOhg" data-version="1" viewBox="0 0 1500 1500"><path fill="#fcfcfc" stroke="transparent" d="M0 0h1500v1500H0z"/><g data-padding="20"><g transform="translate(-691.781 -701.727)scale(1.86683)"><rect width="190.193" height="233.91" x="254.041" y="256.177" fill="none" rx="0" ry="0" transform="translate(585.4 400.5)"/><path fill="#1a1a1a" d="M1020.267 838.162h-65q-9.73-17.6-32.29-53.82l-24.22 24.01v29.81h-51.54q1.65-40.16 1.65-75.14 0-34.99-1.65-75.15h51.54v60.66q38.09-37.68 54.23-60.66h67.07l-65.2 64.59q14.49 20.28 32.6 44.09 18.11 23.8 32.81 41.61" paint-order="stroke"/><g fill="none" stroke="#1a1a1a" stroke-width="3.5" paint-order="stroke"><path d="M689.95 712.89a138.162 66.83 0 1 0 0 133.66 138.162 66.83 0 1 0 0-133.66Z" vector-effect="non-scaling-stroke"/><path d="M747.207 777.682a66.83 138.162 0 1 0-133.66 0 66.83 138.162 0 1 0 133.66 0Z" vector-effect="non-scaling-stroke"/><path d="M731.992 732.546a137.497 66.509 45 1 0-94.057 94.058 137.497 66.509 45 1 0 94.057-94.058Z" vector-effect="non-scaling-stroke"/><path d="M725.513 820.16a66.509 137.497 45 1 0-94.058-94.057 66.509 137.497 45 1 0 94.058 94.058Z" vector-effect="non-scaling-stroke"/><path d="m688.016 723.077 7.387 27.43a28.06 28.06 0 0 0 19.787 19.788l27.431 7.387-27.43 7.387a28.06 28.06 0 0 0-19.788 19.787l-7.387 27.43-7.388-27.43a28.06 28.06 0 0 0-19.787-19.787l-27.425-7.392 27.43-7.388a28.06 28.06 0 0 0 19.788-19.787Z" vector-effect="non-scaling-stroke"/></g></g><path fill="transparent" stroke="transparent" stroke-width="1.948" d="M318.687 514.557H1250v455.915H318.687z"/></g></svg>